<svg xmlns="http://www.w3.org/2000/svg" width="32" height="32" viewBox="0 0 474.085 474.085" xml:space="preserve">
    <circle style="fill:#acddde" cx="237.042" cy="236.966" r="236.966" />
    <path style="fill:#9aca42" d="M237.016 474.085c100.781 0 186.811-62.944 221.071-151.635-61.87-37.302-142.318-55-230.279-55-80.886 0-155.414 14.982-214.998 46.39 31.902 93.204 120.196 160.245 224.206 160.245z" />
    <path style="fill:#84b340" d="M130.765 212.764c0-57.724 34.836-104.515 104.511-104.515s104.515 46.791 104.515 104.515c0 57.72-37.743 104.515-104.515 104.515s-104.511-46.795-104.511-104.515z" />
    <path style="fill:#49341b" d="m231.65 369.54 3.54-200.596a7.35 7.35 0 0 1 14.698 0l3.536 200.596c0 6.013-21.774 6.013-21.774 0z" />
    <path style="fill:#49341b" d="M243.25 292.411a8.333 8.333 0 0 1-3.839-.939 8.345 8.345 0 0 1-3.57-11.255l47.472-86.292c1.523-2.93 5.134-4.075 8.056-2.556a5.976 5.976 0 0 1 2.552 8.06l-43.247 88.47a8.367 8.367 0 0 1-7.424 4.512z" />
    <path style="fill:#49341b" d="M240.096 298.881a9.697 9.697 0 0 1-8.108-4.355l-52.845-85.436c-1.961-2.978-1.152-6.99 1.826-8.958 2.967-1.972 6.99-1.156 8.962 1.822l58.252 81.858a9.702 9.702 0 0 1-2.739 13.452 9.599 9.599 0 0 1-5.348 1.617z" />
</svg>
